<?xml version="1.0" encoding="utf-8"?>
<!-- Generator: Adobe Illustrator 24.2.3, SVG Export Plug-In . SVG Version: 6.00 Build 0)  -->
<svg version="1.1" id="Capa_1" xmlns="http://www.w3.org/2000/svg" xmlns:xlink="http://www.w3.org/1999/xlink" x="0px" y="0px"
	 viewBox="0 0 512 512" style="enable-background:new 0 0 512 512;" xml:space="preserve">
<style type="text/css">
	.st0{fill:#707070;}
</style>
<g>
	<g>
		<path class="st0" d="M237.7,148c-33,0-59.9,27.1-59.9,60.4s26.9,60.4,59.9,60.4s59.9-27.1,59.9-60.4S270.8,148,237.7,148z"/>
	</g>
</g>
<g>
	<g>
		<path class="st0" d="M377.9,63.4C340.5,22.5,290.7,0,237.7,0S135,22.5,97.5,63.4c-37.5,40.9-58.1,95.3-58.1,153.1
			c0,117,101.3,214.3,155.7,266.6c7.6,7.3,14.1,13.5,19.3,18.8c6.5,6.7,14.9,10,23.3,10c8.4,0,16.7-3.3,23.3-10
			c5.2-5.3,11.7-11.6,19.3-18.8C334.7,430.9,436,333.6,436,216.6C436,158.7,415.4,104.3,377.9,63.4z M237.7,303.8
			c-48.2,0-87.4-42.8-87.4-95.4s39.2-95.4,87.4-95.4s87.4,42.8,87.4,95.4S285.9,303.8,237.7,303.8z"/>
	</g>
</g>
</svg>
